<?xml version="1.0" standalone="no"?>
<!DOCTYPE svg PUBLIC "-//W3C//DTD SVG 20010904//EN"
 "http://www.w3.org/TR/2001/REC-SVG-20010904/DTD/svg10.dtd">
<svg version="1.0" xmlns="http://www.w3.org/2000/svg"
 width="170.000000pt" height="170.000000pt" viewBox="0 0 170.000000 170.000000"
 preserveAspectRatio="xMidYMid meet">

<g transform="translate(0.000000,170.000000) scale(0.100000,-0.100000)"
fill="#000000" stroke="none">
<path d="M530 1468 c0 -230 0 -231 20 -213 11 10 20 13 20 7 0 -6 -4 -14 -10
-17 -5 -3 -10 -18 -10 -33 l1 -27 15 28 c8 15 19 25 23 22 5 -2 14 2 21 10 11
13 66 45 78 45 2 0 1 -7 -2 -16 -5 -12 1 -11 28 5 40 25 47 26 39 6 -3 -9 -19
-23 -35 -31 -16 -9 -27 -18 -24 -21 3 -3 17 2 31 11 15 10 32 15 39 13 7 -3
26 5 42 19 34 27 54 30 54 8 0 -8 4 -13 9 -10 13 8 59 -31 67 -57 3 -12 16
-33 28 -47 69 -78 124 -212 95 -231 -8 -4 -15 -16 -16 -26 -1 -10 -8 -42 -16
-70 -9 -29 -13 -70 -11 -90 4 -30 -2 -51 -29 -97 -38 -68 -69 -95 -112 -98
-16 -1 -43 -12 -60 -24 -16 -12 -41 -25 -55 -30 l-25 -8 30 -7 c28 -6 28 -7
-11 -8 -22 0 -45 4 -52 11 -7 7 -12 9 -12 5 0 -15 51 -38 93 -42 42 -4 51 0
137 60 50 36 94 65 99 65 7 0 36 36 56 69 5 9 4 12 -3 8 -7 -5 -8 7 -5 35 6
48 22 87 23 55 0 -10 7 -41 16 -68 l17 -50 -36 -72 c-20 -40 -51 -95 -70 -124
-35 -55 -54 -98 -135 -306 l-50 -127 434 0 434 0 0 189 c0 172 -2 190 -17 194
-17 4 -17 5 0 6 16 1 17 39 17 656 l0 655 -585 0 -585 0 0 -232z m80 -198 c0
-5 -4 -10 -9 -10 -6 0 -13 5 -16 10 -3 6 1 10 9 10 9 0 16 -4 16 -10z m570
-224 c0 -2 -7 -7 -16 -10 -8 -3 -12 -2 -9 4 6 10 25 14 25 6z m2 -61 c6 14 7
12 3 -10 -19 -99 -50 -155 -85 -155 -16 0 -19 8 -19 60 1 57 2 60 25 60 16 0
24 -6 24 -17 1 -14 4 -12 15 7 7 14 12 36 9 50 -5 23 -4 24 7 5 12 -19 12 -19
21 0z m302 -432 c10 -25 -9 -36 -48 -29 -43 8 -46 21 -8 34 39 15 49 14 56 -5z
m186 7 c0 -5 -11 -10 -25 -10 -14 0 -25 5 -25 10 0 6 11 10 25 10 14 0 25 -4
25 -10z m-750 -15 c0 -8 -61 -37 -67 -32 -3 3 8 12 24 21 29 16 43 19 43 11z"/>
<path d="M630 1240 c0 -5 4 -10 9 -10 6 0 13 5 16 10 3 6 -1 10 -9 10 -9 0
-16 -4 -16 -10z"/>
<path d="M912 1210 c0 -14 2 -19 5 -12 2 6 2 18 0 25 -3 6 -5 1 -5 -13z"/>
<path d="M760 1040 c-17 -17 -30 -33 -30 -36 0 -2 20 -2 45 1 25 3 53 1 63 -4
47 -23 79 -28 98 -14 10 8 26 18 34 23 13 8 13 11 -2 26 -20 21 -38 11 -30
-18 4 -18 2 -20 -19 -15 -13 4 -47 12 -76 18 -53 12 -63 29 -17 29 14 0 22 4
19 10 -12 20 -56 10 -85 -20z"/>
<path d="M530 1040 c0 -5 16 -10 35 -10 19 0 35 5 35 10 0 6 -16 10 -35 10
-19 0 -35 -4 -35 -10z"/>
<path d="M553 1013 c-21 -4 -32 -21 -15 -24 33 -6 52 -5 52 2 0 5 9 9 21 9 11
0 17 5 14 10 -6 10 -31 11 -72 3z"/>
<path d="M790 846 c0 -10 -9 -16 -24 -16 -28 0 -78 -24 -69 -33 10 -11 60 -8
88 5 25 11 34 41 15 53 -5 3 -10 -1 -10 -9z"/>
<path d="M648 813 c7 -3 16 -2 19 1 4 3 -2 6 -13 5 -11 0 -14 -3 -6 -6z"/>
<path d="M0 600 l0 -190 48 -1 c62 -1 105 -8 116 -19 16 -15 3 -20 -78 -29
-43 -5 -79 -11 -82 -14 -3 -2 -4 -35 -2 -72 l3 -67 24 21 c26 23 36 27 26 11
-9 -14 8 -13 23 2 8 8 8 2 0 -25 -11 -36 -39 -50 -53 -27 -4 6 -11 8 -16 5
-15 -10 -10 -34 11 -58 18 -19 22 -20 31 -7 7 11 9 -6 6 -57 l-4 -73 208 0
208 0 11 58 c7 31 20 86 30 122 l18 65 18 -32 c11 -18 24 -33 29 -33 23 0 91
48 111 77 12 18 24 29 28 26 3 -4 6 1 6 10 0 25 12 21 57 -20 52 -49 110 -80
123 -67 6 6 16 40 24 76 13 64 13 68 -10 117 -14 28 -28 51 -33 51 -5 0 -38
-13 -73 -30 -52 -23 -77 -28 -119 -26 -74 4 -133 17 -141 30 -12 18 -9 64 7
103 15 35 14 38 -8 62 -41 45 -71 94 -89 146 l-17 50 -220 3 -221 2 0 -190z
m101 -20 c27 -15 24 -55 -7 -79 -30 -24 -54 -27 -72 -9 -17 17 -15 36 9 69 22
31 38 35 70 19z m252 -160 c7 -28 -24 -44 -57 -28 -31 14 -32 22 -6 48 24 24
54 14 63 -20z"/>
<path d="M770 740 c-52 -6 -53 -7 -15 -10 53 -3 78 0 90 11 5 6 3 8 -5 7 -8
-1 -40 -4 -70 -8z"/>
<path d="M629 729 c-10 -6 -7 -9 14 -9 29 0 35 5 14 13 -8 3 -20 1 -28 -4z"/>
</g>
</svg>
